<svg width="320" height="338" viewBox="0 0 320 338" fill="none" xmlns="http://www.w3.org/2000/svg">
<path d="M190.18 193.77C190.239 193.823 190.294 193.879 190.347 193.937L190.823 194.43L192.66 196.375L199.59 203.797L224.144 230.272H223.86L251.712 198.371L251.904 198.154L252.063 198.396L254.091 201.451L275.164 233.177L274.872 233.127L295.126 216.947L295.243 216.855L295.343 216.964L310.806 234.496L314.98 239.28L316.065 240.533C316.308 240.817 316.424 240.967 316.424 240.967C316.424 240.967 316.283 240.833 316.032 240.566L314.93 239.28L310.672 234.555L295.11 217.147H295.327L275.122 233.436L274.955 233.57L274.83 233.386L253.732 201.71L251.695 198.646H252.038C241.902 210.251 232.367 221.147 224.152 230.547L224.01 230.706L223.868 230.547C213.783 219.577 205.342 210.41 199.423 203.964L192.576 196.45L190.781 194.463C190.589 194.238 190.439 194.071 190.322 193.946C190.205 193.82 190.172 193.779 190.18 193.77Z" fill="#E6E6E6"/>
<path d="M221.263 230.489C221.258 231.069 221.426 231.637 221.745 232.122C222.065 232.606 222.521 232.985 223.056 233.209C223.591 233.433 224.18 233.493 224.749 233.381C225.319 233.269 225.842 232.99 226.252 232.58C226.662 232.17 226.941 231.647 227.053 231.078C227.165 230.509 227.105 229.919 226.88 229.384C226.656 228.849 226.278 228.393 225.793 228.074C225.309 227.755 224.741 227.587 224.16 227.592C223.393 227.596 222.659 227.903 222.117 228.445C221.574 228.988 221.268 229.722 221.263 230.489V230.489Z" fill="#E0E0E0"/>
<path d="M272.417 233.97C272.421 234.549 272.595 235.113 272.92 235.592C273.244 236.071 273.703 236.443 274.239 236.66C274.774 236.878 275.363 236.932 275.929 236.816C276.495 236.699 277.014 236.417 277.42 236.005C277.826 235.593 278.101 235.07 278.21 234.502C278.318 233.934 278.256 233.347 278.03 232.814C277.805 232.282 277.426 231.828 276.943 231.511C276.459 231.193 275.893 231.027 275.314 231.032C274.541 231.038 273.801 231.351 273.258 231.902C272.715 232.453 272.413 233.197 272.417 233.97Z" fill="#E0E0E0"/>
<path d="M292.313 217.882C292.318 218.458 292.494 219.02 292.818 219.497C293.142 219.973 293.6 220.342 294.135 220.558C294.669 220.774 295.255 220.827 295.819 220.71C296.384 220.592 296.9 220.31 297.304 219.899C297.708 219.488 297.981 218.967 298.089 218.401C298.197 217.835 298.134 217.249 297.909 216.719C297.684 216.188 297.306 215.736 296.824 215.42C296.343 215.104 295.778 214.938 295.202 214.943C294.429 214.952 293.692 215.266 293.151 215.817C292.61 216.367 292.308 217.11 292.313 217.882V217.882Z" fill="#E0E0E0"/>
<path d="M248.957 198.763C248.96 199.341 249.135 199.906 249.459 200.384C249.783 200.863 250.242 201.235 250.778 201.453C251.314 201.671 251.902 201.725 252.468 201.608C253.035 201.492 253.554 201.209 253.96 200.798C254.366 200.386 254.64 199.863 254.749 199.295C254.858 198.727 254.795 198.139 254.57 197.607C254.344 197.074 253.966 196.621 253.482 196.303C252.999 195.986 252.432 195.819 251.854 195.824C251.08 195.831 250.341 196.144 249.798 196.695C249.255 197.246 248.952 197.989 248.957 198.763V198.763Z" fill="#E0E0E0"/>
<path d="M314.12 241.05C314.123 241.629 314.298 242.193 314.623 242.672C314.947 243.151 315.406 243.523 315.941 243.74C316.477 243.958 317.065 244.012 317.632 243.896C318.198 243.779 318.717 243.497 319.123 243.085C319.529 242.673 319.804 242.15 319.912 241.582C320.021 241.014 319.959 240.427 319.733 239.894C319.508 239.362 319.129 238.908 318.646 238.591C318.162 238.273 317.596 238.107 317.017 238.112C316.244 238.118 315.504 238.431 314.961 238.982C314.418 239.533 314.116 240.277 314.12 241.05V241.05Z" fill="#E0E0E0"/>
<path d="M58.1921 19.9539H39.432V94.5683H58.1921V19.9539Z" fill="#E6E6E6"/>
<path d="M85.7853 36.226H67.0252V94.56H85.7853V36.226Z" fill="#E6E6E6"/>
<path d="M113.804 49.5509H95.0443V94.56H113.804V49.5509Z" fill="#E6E6E6"/>
<path d="M139.744 67.8351H120.984V94.5683H139.744V67.8351Z" fill="#E6E6E6"/>
<path d="M124.725 1.33583C124.725 1.33583 124.549 1.56125 124.207 1.962L122.646 3.75702L116.71 10.5197L95.303 34.7316L95.1862 34.8568L95.0526 34.7566L81.0848 24.0533H81.3687L61.8322 48.8162L61.5984 49.1168L61.4565 49.3004L61.2812 49.1418L34.9737 25.9067H35.2659C24.9383 39.4654 16.1886 51.0454 9.92688 59.2357L2.63826 68.7618L0.692963 71.2665L0.183678 71.9093C0.126834 71.9853 0.0654981 72.0578 0 72.1264C0.0474258 72.0449 0.100431 71.9668 0.158632 71.8926L0.642865 71.2247L2.53808 68.6616L9.72651 59.0687L34.9403 25.6229L35.0739 25.4475L35.2325 25.5895L61.5734 48.7661H61.2561L61.4899 48.4655L81.0514 23.7193L81.1767 23.5607L81.3353 23.6859L95.278 34.3809H95.0275L116.543 10.361C119.139 7.48064 121.176 5.21808 122.571 3.68188L124.165 1.9286C124.533 1.51115 124.725 1.33583 124.725 1.33583Z" fill="#E6E6E6"/>
<path d="M121.627 18.6432C121.621 18.5165 121.635 18.3896 121.669 18.2675L121.878 17.1988C122.095 16.2053 122.387 14.8861 122.713 13.2748C123.456 9.93523 124.508 5.37671 125.718 0.267166L125.985 0.517633L125.042 0.809844C119.807 2.42119 115.065 3.84886 111.625 4.86743L107.543 6.04462L106.424 6.34519C106.296 6.39303 106.16 6.41844 106.023 6.42033C106.143 6.35527 106.269 6.30213 106.399 6.2617L107.492 5.886L111.533 4.57521C114.948 3.4815 119.682 2.00374 124.892 0.400748L125.835 0.116885L126.202 0L126.111 0.375699C124.95 5.51029 123.89 10.0521 123.055 13.3499C122.646 14.9446 122.312 16.2554 122.07 17.2405C121.953 17.6496 121.853 18.0003 121.778 18.2842C121.745 18.4106 121.695 18.5315 121.627 18.6432V18.6432Z" fill="#E6E6E6"/>
<path d="M269.62 127.497C273.348 127.436 277.01 128.482 280.144 130.503C283.277 132.523 285.741 135.428 287.224 138.848C288.706 142.269 289.141 146.053 288.474 149.721C287.807 153.389 286.066 156.777 283.474 159.456C280.881 162.135 277.552 163.985 273.908 164.773C270.263 165.56 266.467 165.249 263 163.879C259.532 162.509 256.549 160.142 254.427 157.076C252.305 154.011 251.139 150.385 251.077 146.657C251.001 141.659 252.911 136.835 256.387 133.243C259.863 129.651 264.622 127.584 269.62 127.497V127.497ZM270.071 155.365C271.853 155.332 273.586 154.771 275.049 153.754C276.513 152.736 277.642 151.308 278.295 149.649C278.947 147.99 279.093 146.175 278.714 144.433C278.335 142.692 277.448 141.101 276.166 139.863C274.883 138.625 273.263 137.795 271.509 137.477C269.755 137.16 267.946 137.369 266.311 138.079C264.676 138.79 263.288 139.968 262.323 141.467C261.357 142.965 260.858 144.716 260.887 146.499C260.908 147.684 261.162 148.854 261.635 149.941C262.107 151.028 262.79 152.011 263.643 152.834C264.495 153.658 265.502 154.305 266.605 154.739C267.708 155.174 268.886 155.386 270.071 155.365V155.365Z" fill="#E0E0E0"/>
<path d="M269.587 125.15C275.209 125.07 280.633 127.222 284.671 131.135C288.709 135.047 291.031 140.401 291.127 146.023L278.27 146.357C278.186 140.771 274.404 138.5 269.921 138.217C268.819 138.151 267.716 138.314 266.68 138.695C265.644 139.076 264.699 139.668 263.903 140.432C263.107 141.197 262.478 142.118 262.055 143.138C261.632 144.157 261.425 145.253 261.447 146.357L248.723 146.699C248.636 141.076 250.784 135.648 254.696 131.608C258.608 127.567 263.964 125.245 269.587 125.15Z" fill="#F0F0F0"/>
<path d="M116.969 210.568C123.459 203.758 132.363 199.767 141.766 199.455C151.168 199.143 160.318 202.534 167.246 208.899C170.649 212.035 173.396 215.816 175.327 220.022C177.258 224.228 178.335 228.775 178.496 233.401C178.657 238.026 177.898 242.637 176.263 246.967C174.629 251.297 172.151 255.26 168.974 258.625C162.484 265.435 153.579 269.426 144.177 269.738C134.774 270.051 125.625 266.659 118.697 260.295C115.294 257.158 112.547 253.377 110.616 249.171C108.684 244.965 107.607 240.418 107.446 235.792C107.286 231.167 108.045 226.556 109.679 222.226C111.314 217.896 113.791 213.934 116.969 210.568V210.568ZM155.374 246.085C156.897 244.476 158.085 242.581 158.868 240.509C159.652 238.438 160.015 236.231 159.938 234.017C159.86 231.803 159.343 229.627 158.416 227.615C157.489 225.603 156.171 223.796 154.539 222.299C151.223 219.259 146.845 217.643 142.35 217.799C137.854 217.955 133.599 219.871 130.502 223.134C128.979 224.742 127.791 226.637 127.007 228.709C126.224 230.781 125.86 232.988 125.938 235.201C126.016 237.415 126.533 239.591 127.46 241.603C128.387 243.615 129.705 245.422 131.337 246.92C134.653 249.966 139.034 251.587 143.535 251.431C148.035 251.274 152.294 249.354 155.39 246.085H155.374Z" fill="#F5F5F5"/>
<path d="M116.969 210.568C123.459 203.758 132.363 199.767 141.766 199.455C151.168 199.143 160.318 202.534 167.246 208.899L154.572 222.324C151.256 219.284 146.879 217.668 142.383 217.824C137.887 217.98 133.633 219.896 130.536 223.159C129.012 224.767 127.824 226.662 127.041 228.734C126.257 230.806 125.894 233.013 125.971 235.226C126.049 237.44 126.566 239.616 127.493 241.628C128.42 243.64 129.738 245.447 131.37 246.945L118.68 260.32C115.274 257.182 112.526 253.398 110.594 249.19C108.662 244.981 107.585 240.43 107.426 235.802C107.266 231.173 108.028 226.56 109.666 222.228C111.304 217.896 113.786 213.933 116.969 210.568V210.568Z" fill="#E0E0E0"/>
<path d="M165.793 203.13C183.326 219.351 185.455 245.709 169.049 263.108L151.241 247.755C159.081 239.447 160.784 228.352 152.393 220.595L165.793 203.13Z" fill="#EBEBEB"/>
<path d="M149.387 248.857L159.966 269.779C164.34 268.176 168.281 265.578 171.479 262.19L152.477 246.844L149.387 248.857Z" fill="#E0E0E0"/>
<path d="M189.295 55.7291C189.141 46.3509 191.772 37.1376 196.855 29.2549C201.938 21.3722 209.245 15.1742 217.851 11.445C226.458 7.71582 235.977 6.62301 245.204 8.30483C254.432 9.98664 262.953 14.3675 269.69 20.8932C276.427 27.419 281.078 35.7963 283.053 44.9655C285.028 54.1346 284.239 63.6836 280.786 72.4044C277.334 81.1252 271.372 88.626 263.655 93.9578C255.938 99.2896 246.814 102.213 237.435 102.358C224.874 102.537 212.755 97.7294 203.732 88.9894C194.708 80.2494 189.517 68.2893 189.295 55.7291V55.7291ZM259.368 54.602C259.295 50.1197 257.894 45.7597 255.343 42.0734C252.792 38.3871 249.205 35.54 245.036 33.892C240.867 32.2441 236.303 31.8694 231.921 32.8152C227.539 33.7611 223.536 35.985 220.418 39.2059C217.3 42.4267 215.207 46.4998 214.403 50.9102C213.6 55.3206 214.122 59.8701 215.904 63.9836C217.687 68.097 220.648 71.5896 224.415 74.0199C228.183 76.4501 232.586 77.7088 237.068 77.6367C243.078 77.5335 248.801 75.05 252.982 70.7315C257.163 66.4129 259.459 60.6121 259.368 54.602V54.602Z" fill="#FAFAFA"/>
<path d="M189.295 55.7291C189.106 43.1599 193.911 31.0288 202.656 21.9987C211.401 12.9686 223.372 7.77722 235.941 7.56413L236.342 32.302C230.33 32.3983 224.603 34.8789 220.42 39.1979C216.237 43.517 213.941 49.3208 214.037 55.3325C214.134 61.3443 216.614 67.0716 220.933 71.2544C225.252 75.4372 231.056 77.733 237.068 77.6367L237.435 102.358C224.873 102.541 212.751 97.7353 203.727 88.9943C194.703 80.2534 189.513 68.2907 189.295 55.7291V55.7291Z" fill="#E0E0E0"/>
<path d="M231.683 3.75702C262.265 3.26443 286.669 26.8919 287.153 57.474L258.207 57.9416C257.974 43.3143 246.794 34.1054 232.175 34.3475L231.683 3.75702Z" fill="#F0F0F0"/>
<path d="M287.529 337.739C287.529 337.856 225.104 337.956 148.102 337.956C71.0995 337.956 8.67456 337.856 8.67456 337.739C8.67456 337.622 71.0828 337.514 148.102 337.514C225.121 337.514 287.529 337.614 287.529 337.739Z" fill="#263238"/>
<path d="M94.226 221.973L248.932 220.863V223.033L94.226 224.419V221.973Z" fill="#263238"/>
<path d="M90.853 64.6875L94.3763 223.267L248.932 222.065V62.0242L90.853 64.6875Z" fill="white"/>
<path d="M90.853 64.6875L248.932 61.8405H249.124V62.0326C249.124 107.843 249.124 161.902 249.124 219.577V222.29H248.907L94.3513 223.467H94.1676V223.284C92.1722 128.24 90.8697 66.3239 90.828 64.6959C90.828 66.2989 92.3141 128.24 94.5349 223.267L94.3513 223.083L248.907 221.856L248.69 222.073V219.569C248.69 161.894 248.69 107.835 248.69 62.0242L248.882 62.2162L90.853 64.6875Z" fill="#263238"/>
<path d="M90.2352 65.7478L249.608 64.8378L249.808 58.1503L90.2352 59.1438V65.7478Z" fill="#263238"/>
<path d="M166.528 227.592C166.261 227.592 165.977 226.348 165.902 224.795C165.826 223.242 165.993 221.973 166.261 221.956C166.528 221.94 166.812 223.192 166.887 224.745C166.962 226.298 166.803 227.592 166.528 227.592Z" fill="#263238"/>
<path d="M166.469 226.448C166.469 226.39 166.736 226.373 167.154 226.54C167.406 226.646 167.642 226.786 167.855 226.957C168.142 227.188 168.383 227.472 168.565 227.792C168.813 228.236 168.937 228.738 168.925 229.246C168.913 229.754 168.766 230.249 168.498 230.681C168.337 230.941 168.134 231.173 167.897 231.366C167.649 231.565 167.366 231.715 167.062 231.808C166.417 231.986 165.729 231.936 165.117 231.666C164.807 231.528 164.524 231.336 164.282 231.098C164.041 230.861 163.851 230.577 163.723 230.264C163.491 229.694 163.442 229.067 163.581 228.468C163.683 227.969 163.924 227.509 164.275 227.14C164.626 226.771 165.074 226.508 165.568 226.381C166.199 226.209 166.871 226.268 167.463 226.548C167.864 226.749 168.014 226.957 167.98 227.007C167.947 227.058 167.722 227.007 167.338 226.907C166.815 226.81 166.275 226.856 165.776 227.041C165.455 227.166 165.169 227.366 164.941 227.625C164.681 227.931 164.511 228.303 164.45 228.699C164.39 229.096 164.441 229.502 164.599 229.871C164.781 230.268 165.106 230.581 165.509 230.748C165.91 230.927 166.361 230.965 166.787 230.856C167.178 230.755 167.518 230.511 167.738 230.172C167.956 229.852 168.085 229.48 168.114 229.095C168.139 228.92 168.139 228.743 168.114 228.569C168.087 228.405 168.039 228.245 167.972 228.093C167.758 227.602 167.422 227.173 166.995 226.849C166.686 226.632 166.469 226.515 166.469 226.448Z" fill="#263238"/>
<path d="M189.462 151.466C189.462 151.466 189.462 151.466 189.362 151.466H189.078L187.976 151.516L183.727 151.7L168.097 152.285C154.898 152.769 136.655 153.412 116.518 154.105L109.588 154.338H109.429V154.18C108.027 135.754 106.758 119.239 105.881 107.367C105.447 101.44 105.105 96.6723 104.863 93.3911C104.754 91.7214 104.662 90.4774 104.604 89.6174C104.604 89.1833 104.554 88.8577 104.545 88.6323C104.537 88.4068 104.545 88.4402 104.545 88.3818C104.545 88.3233 104.545 88.2983 104.545 88.2983C104.549 88.326 104.549 88.3541 104.545 88.3818C104.545 88.4402 104.545 88.5237 104.545 88.6323C104.545 88.7408 104.595 89.1833 104.637 89.6091C104.704 90.444 104.813 91.7381 104.954 93.3828C105.213 96.6639 105.597 101.431 106.073 107.342C107.008 119.181 108.294 135.653 109.713 154.155L109.546 154.004L116.476 153.762C136.614 153.078 154.881 152.468 168.056 152.051L183.693 151.566L187.943 151.45H189.045H189.429L189.462 151.466Z" fill="#455A64"/>
<path d="M133.499 83.1637V85.2927L155.524 84.2407V82.454L133.499 83.1637Z" fill="#263238"/>
<path d="M116.827 149.646H124.483L123.28 128.866H115.775L116.827 149.646Z" fill="#FF725E"/>
<path d="M130.702 149.655H138.35L137.156 120.609H129.651L130.702 149.655Z" fill="#FF725E"/>
<path d="M143.693 148.728H151.349L150.147 110.698H142.65L143.693 148.728Z" fill="#FF725E"/>
<path d="M173.499 147.25H181.147L179.953 95.4199H172.447L173.499 147.25Z" fill="#FF725E"/>
<path d="M158.997 147.425H166.645L165.442 102.825H157.945L158.997 147.425Z" fill="#FF725E"/>
<path d="M112.018 123.481C111.817 123.172 125.493 114.055 142.55 103.118C159.607 92.1806 173.616 83.5645 173.816 83.9151C174.017 84.2658 160.341 93.3411 143.276 104.278C126.211 115.215 112.201 123.79 112.018 123.481Z" fill="#FF725E"/>
<path d="M166.244 83.8817C166.177 83.5144 171.128 82.2787 177.323 81.1099L178.893 80.8176L177.999 82.1451L177.949 82.2203C174.409 87.4801 171.27 91.5794 170.978 91.4041C170.686 91.2288 173.299 86.7704 176.822 81.5023L176.872 81.4271L177.557 82.4624C171.37 83.5895 166.311 84.2407 166.244 83.8817Z" fill="#FF725E"/>
<path d="M115.775 156.668H123.773L124.023 158.087H115.775V156.668Z" fill="#263238"/>
<path d="M129.934 156.083H137.933L138.183 157.503H129.934V156.083Z" fill="#263238"/>
<path d="M144.512 155.666H152.51L152.76 157.085H144.512V155.666Z" fill="#263238"/>
<path d="M158.17 155.324H166.169L166.419 156.751H158.17V155.324Z" fill="#263238"/>
<path d="M175.094 154.823H183.092L183.342 156.25H175.094V154.823Z" fill="#263238"/>
<path d="M210.969 211.412C225.07 211.412 236.5 199.981 236.5 185.881C236.5 171.78 225.07 160.35 210.969 160.35C196.869 160.35 185.438 171.78 185.438 185.881C185.438 199.981 196.869 211.412 210.969 211.412Z" fill="#FF725E"/>
<path opacity="0.3" d="M210.969 211.412C225.07 211.412 236.5 199.981 236.5 185.881C236.5 171.78 225.07 160.35 210.969 160.35C196.869 160.35 185.438 171.78 185.438 185.881C185.438 199.981 196.869 211.412 210.969 211.412Z" fill="black"/>
<path d="M210.969 185.847L186.064 191.449C182.057 173.082 196.868 160.316 210.969 160.316" fill="#FF725E"/>
<path d="M211.003 185.847L210.836 160.316C229.637 160.316 238.955 177.507 235.949 191.282L211.003 185.847Z" fill="#FF725E"/>
<path d="M211.003 185.847L210.836 160.316C229.637 160.316 238.955 177.507 235.949 191.282L211.003 185.847Z" fill="#FF725E"/>
<path opacity="0.1" d="M211.003 185.847L210.836 160.316C229.637 160.316 238.955 177.507 235.949 191.282L211.003 185.847Z" fill="black"/>
<path d="M237.16 125.426C236.664 125.094 236.135 124.815 235.582 124.591C234.04 124.119 232.386 124.166 230.873 124.725C228.919 125.334 226.982 126.887 225.104 128.832C223.225 130.778 221.213 133.132 218.274 134.51C216.856 135.214 215.26 135.479 213.691 135.269C212.275 134.976 210.907 134.487 209.625 133.817C208.497 133.229 207.291 132.805 206.043 132.556C204.958 132.386 203.847 132.525 202.837 132.957C201.351 133.587 200.136 134.723 199.406 136.163C199.171 136.704 198.979 137.262 198.83 137.833C198.856 137.229 199.001 136.636 199.256 136.088C199.955 134.567 201.183 133.353 202.712 132.673C203.759 132.207 204.916 132.042 206.052 132.197C207.34 132.436 208.589 132.858 209.759 133.449C211.007 134.097 212.338 134.569 213.716 134.852C215.201 135.037 216.708 134.781 218.049 134.117C220.871 132.798 222.85 130.46 224.778 128.548C226.707 126.637 228.702 125.025 230.731 124.432C232.307 123.883 234.023 123.883 235.598 124.432C236.019 124.594 236.415 124.814 236.776 125.084C236.917 125.182 237.046 125.296 237.16 125.426V125.426Z" fill="#263238"/>
<path d="M239.322 141.923C239.322 142.049 230.255 142.141 219.076 142.141C207.897 142.141 198.83 142.049 198.83 141.923C198.83 141.798 207.897 141.706 219.076 141.706C230.255 141.706 239.322 141.807 239.322 141.923Z" fill="#263238"/>
<path d="M237.068 141.923C236.951 141.923 236.851 136.764 236.851 130.394C236.851 124.023 236.951 118.872 237.068 118.872C237.185 118.872 237.285 124.032 237.285 130.394C237.285 136.755 237.193 141.923 237.068 141.923Z" fill="#263238"/>
<path d="M202.912 132.214C202.912 132.214 202.854 132.13 202.912 131.98C202.951 131.874 203.012 131.779 203.091 131.699C203.17 131.62 203.266 131.559 203.372 131.521C203.53 131.451 203.705 131.425 203.877 131.447C204.05 131.469 204.213 131.538 204.348 131.646C204.496 131.811 204.582 132.021 204.595 132.242C204.607 132.463 204.544 132.681 204.416 132.861C204.288 133.042 204.103 133.173 203.89 133.235C203.678 133.296 203.451 133.283 203.246 133.199C203.103 133.113 202.984 132.99 202.904 132.844C202.823 132.697 202.783 132.531 202.787 132.364C202.785 132.253 202.806 132.142 202.848 132.039C202.889 131.936 202.951 131.842 203.029 131.763C203.155 131.663 203.246 131.663 203.255 131.679C203.263 131.696 203.029 131.921 203.088 132.347C203.099 132.457 203.136 132.562 203.196 132.655C203.255 132.748 203.335 132.825 203.43 132.882C203.547 132.911 203.67 132.905 203.784 132.863C203.897 132.822 203.996 132.747 204.066 132.649C204.136 132.55 204.175 132.433 204.178 132.312C204.181 132.192 204.147 132.073 204.081 131.972C203.997 131.903 203.898 131.855 203.792 131.834C203.686 131.812 203.576 131.816 203.472 131.846C203.046 131.913 202.971 132.23 202.912 132.214Z" fill="#263238"/>
<path d="M230.213 123.84C230.213 123.84 230.213 123.74 230.364 123.656C230.558 123.558 230.783 123.54 230.99 123.606C231.155 123.651 231.304 123.74 231.422 123.863C231.539 123.987 231.621 124.14 231.658 124.307C231.671 124.523 231.611 124.736 231.487 124.913C231.364 125.09 231.185 125.22 230.978 125.283C230.772 125.346 230.551 125.337 230.35 125.258C230.149 125.18 229.98 125.036 229.871 124.85C229.811 124.689 229.795 124.515 229.826 124.346C229.857 124.177 229.933 124.019 230.046 123.89C230.187 123.723 230.388 123.618 230.606 123.598C230.756 123.598 230.831 123.648 230.823 123.673C230.815 123.698 230.506 123.714 230.297 124.073C230.239 124.163 230.203 124.265 230.191 124.37C230.18 124.476 230.193 124.583 230.23 124.683C230.304 124.773 230.402 124.839 230.513 124.873C230.625 124.907 230.743 124.907 230.854 124.873C230.966 124.839 231.064 124.772 231.137 124.682C231.21 124.592 231.255 124.481 231.265 124.366C231.243 124.262 231.197 124.165 231.13 124.082C231.063 123.999 230.978 123.933 230.881 123.89C230.514 123.706 230.255 123.898 230.213 123.84Z" fill="#263238"/>
<path d="M236.35 96.5136C236.35 96.6305 227.567 96.7307 216.738 96.7307C205.91 96.7307 197.127 96.6305 197.127 96.5136C197.127 96.3968 205.901 96.2966 216.738 96.2966C227.575 96.2966 236.35 96.4135 236.35 96.5136Z" fill="#263238"/>
<path d="M236.35 101.982C236.35 102.107 227.567 102.199 216.738 102.199C205.91 102.199 197.127 102.107 197.127 101.982C197.127 101.857 205.901 101.765 216.738 101.765C227.575 101.765 236.35 101.865 236.35 101.982Z" fill="#263238"/>
<path d="M236.35 107.434C236.35 107.551 227.567 107.651 216.738 107.651C205.91 107.651 197.127 107.551 197.127 107.434C197.127 107.317 205.901 107.217 216.738 107.217C227.575 107.217 236.35 107.309 236.35 107.434Z" fill="#263238"/>
<path d="M236.35 112.878C236.35 113.003 227.567 113.095 216.738 113.095C205.91 113.095 197.127 113.003 197.127 112.878C197.127 112.752 205.901 112.66 216.738 112.66C227.575 112.66 236.35 112.761 236.35 112.878Z" fill="#263238"/>
<path d="M217.999 86.5701H197.127V88.3317H217.999V86.5701Z" fill="#263238"/>
<path d="M131.838 174.033H110.966V175.795H131.838V174.033Z" fill="#263238"/>
<path d="M168.081 184.244C168.081 184.369 155.415 184.461 139.794 184.461C124.174 184.461 111.5 184.369 111.5 184.244C111.5 184.119 124.165 184.027 139.794 184.027C155.424 184.027 168.081 184.127 168.081 184.244Z" fill="#263238"/>
<path d="M168.415 189.187C168.415 189.304 155.524 189.404 139.628 189.404C123.731 189.404 110.84 189.304 110.84 189.187C110.84 189.07 123.723 188.97 139.628 188.97C155.532 188.97 168.415 189.087 168.415 189.187Z" fill="#263238"/>
<path d="M169.074 193.845C169.074 193.962 156.108 194.063 140.12 194.063C124.132 194.063 111.166 193.962 111.166 193.845C111.166 193.729 124.132 193.628 140.12 193.628C156.108 193.628 169.074 193.72 169.074 193.845Z" fill="#263238"/>
<path d="M141.281 198.805C141.281 198.922 134.601 199.022 126.386 199.022C118.171 199.022 111.5 198.922 111.5 198.805C111.5 198.688 118.179 198.588 126.386 198.588C134.593 198.588 141.281 198.688 141.281 198.805Z" fill="#263238"/>
<path d="M50.3607 333.957V326.443L36.226 326.318L36.1091 337.364L36.944 337.422C40.843 337.664 56.7811 338.374 59.3943 337.606C62.3498 336.737 50.3607 333.957 50.3607 333.957Z" fill="#FF725E"/>
<path d="M59.77 336.913C59.77 337.046 54.4851 337.155 47.9646 337.155C41.4441 337.155 36.1509 337.046 36.1509 336.913C36.1509 336.779 41.4441 336.671 47.9646 336.671C54.4851 336.671 59.77 336.779 59.77 336.913Z" fill="#263238"/>
<path d="M50.6112 335.502C50.4943 335.435 50.6112 335.026 50.8951 334.667C51.179 334.308 51.5713 334.074 51.6548 334.166C51.7383 334.258 51.5547 334.6 51.2791 335.001C51.0036 335.402 50.7281 335.569 50.6112 335.502Z" fill="#263238"/>
<path d="M51.513 335.994C51.3877 335.944 51.4545 335.493 51.73 335.026C52.0056 334.558 52.3729 334.274 52.4731 334.358C52.5733 334.441 52.4063 334.834 52.1475 335.268C51.8887 335.702 51.6382 336.044 51.513 335.994Z" fill="#263238"/>
<path d="M40.4005 336.863C40.3421 336.904 40.125 336.704 39.8161 336.37C39.4401 335.934 39.0236 335.534 38.5721 335.176C38.1219 334.845 37.5972 334.63 37.0443 334.55C36.6185 334.492 36.3429 334.55 36.3179 334.483C36.2929 334.416 36.56 334.241 37.0526 334.208C37.7017 334.189 38.3379 334.392 38.856 334.784C39.3498 335.162 39.7689 335.629 40.0916 336.161C40.3504 336.554 40.4673 336.821 40.4005 336.863Z" fill="#263238"/>
<path d="M50.653 334.082C50.7198 334.191 50.4693 334.458 50.0686 334.6C49.6678 334.742 49.3088 334.692 49.2921 334.558C49.2754 334.425 49.5509 334.275 49.9099 334.149C50.2689 334.024 50.5778 333.966 50.653 334.082Z" fill="#263238"/>
<path d="M50.4192 333.348C50.4192 333.481 50.0519 333.598 49.5843 333.607C49.1168 333.615 48.7495 333.506 48.7495 333.373C48.7495 333.239 49.1335 333.131 49.5843 333.122C50.0352 333.114 50.4192 333.214 50.4192 333.348Z" fill="#FF725E"/>
<path d="M59.77 336.913C59.77 337.046 54.4851 337.155 47.9646 337.155C41.4441 337.155 36.1509 337.046 36.1509 336.913C36.1509 336.779 41.4441 336.671 47.9646 336.671C54.4851 336.671 59.77 336.779 59.77 336.913Z" fill="#263238"/>
<path d="M50.6112 335.502C50.4943 335.435 50.6112 335.026 50.8951 334.667C51.179 334.308 51.5713 334.074 51.6548 334.166C51.7383 334.258 51.5547 334.6 51.2791 335.001C51.0036 335.402 50.7281 335.569 50.6112 335.502Z" fill="#263238"/>
<path d="M51.513 335.994C51.3877 335.944 51.4545 335.493 51.73 335.026C52.0056 334.558 52.3729 334.274 52.4731 334.358C52.5733 334.441 52.4063 334.834 52.1475 335.268C51.8887 335.702 51.6382 336.044 51.513 335.994Z" fill="#263238"/>
<path d="M40.4005 336.863C40.3421 336.904 40.125 336.704 39.8161 336.37C39.4401 335.934 39.0236 335.534 38.5721 335.176C38.1219 334.845 37.5972 334.63 37.0443 334.55C36.6185 334.492 36.3429 334.55 36.3179 334.483C36.2929 334.416 36.56 334.241 37.0526 334.208C37.7017 334.189 38.3379 334.392 38.856 334.784C39.3498 335.162 39.7689 335.629 40.0916 336.161C40.3504 336.554 40.4673 336.821 40.4005 336.863Z" fill="#263238"/>
<path d="M50.653 334.082C50.7198 334.191 50.4693 334.458 50.0686 334.6C49.6678 334.742 49.3088 334.692 49.2921 334.558C49.2754 334.425 49.5509 334.275 49.9099 334.149C50.2689 334.024 50.5778 333.966 50.653 334.082Z" fill="#263238"/>
<path d="M50.4192 333.348C50.4192 333.481 50.0519 333.598 49.5843 333.607C49.1168 333.615 48.7495 333.506 48.7495 333.373C48.7495 333.239 49.1335 333.131 49.5843 333.122C50.0352 333.114 50.4192 333.214 50.4192 333.348Z" fill="#263238"/>
<path d="M65.272 331.286L67.5011 324.08L54.026 319.806L50.6864 330.317L51.5213 330.634C55.1698 332.02 70.1895 337.414 72.9113 337.455C75.9002 337.489 65.272 331.286 65.272 331.286Z" fill="#FF725E"/>
<path d="M73.3871 336.888C73.3871 337.021 68.2609 335.56 62.0326 333.623C55.8043 331.686 50.7866 330.025 50.8283 329.9C50.8701 329.774 55.9462 331.235 62.1829 333.164C68.4195 335.093 73.4289 336.762 73.3871 336.888Z" fill="#263238"/>
<path d="M65.0549 332.83C64.9631 332.73 65.1801 332.379 65.5809 332.087C65.9816 331.795 66.4158 331.72 66.4575 331.837C66.4993 331.953 66.2321 332.221 65.8648 332.488C65.4974 332.755 65.1467 332.922 65.0549 332.83Z" fill="#263238"/>
<path d="M65.7646 333.573C65.6644 333.49 65.8564 333.072 66.2655 332.738C66.6746 332.404 67.1004 332.212 67.1755 332.321C67.2507 332.429 66.9668 332.755 66.5911 333.097C66.2154 333.44 65.8731 333.623 65.7646 333.573Z" fill="#263238"/>
<path d="M54.911 331.119C54.8442 331.119 54.7022 330.893 54.5102 330.476C54.2809 329.949 54.0013 329.446 53.6753 328.973C53.3438 328.525 52.9083 328.164 52.4063 327.921C52.0139 327.746 51.73 327.712 51.73 327.645C51.73 327.579 52.0306 327.478 52.5148 327.595C53.1376 327.772 53.682 328.155 54.0594 328.681C54.4169 329.186 54.6799 329.752 54.8358 330.35C54.9444 330.801 54.9694 331.119 54.911 331.119Z" fill="#455A64"/>
<path d="M65.5141 331.486C65.5141 331.611 65.2302 331.795 64.8044 331.812C64.3786 331.828 64.0447 331.67 64.0697 331.536C64.0948 331.402 64.412 331.344 64.7878 331.327C65.1635 331.311 65.4473 331.352 65.5141 331.486Z" fill="#263238"/>
<path d="M65.5141 330.726C65.5141 330.851 65.0967 330.851 64.6375 330.726C64.1783 330.601 63.8527 330.376 63.8944 330.25C63.9362 330.125 64.3369 330.133 64.7711 330.25C65.2052 330.367 65.5475 330.593 65.5141 330.726Z" fill="#263238"/>
<path d="M74.8649 184.703L56.3136 183.276L28.2111 180.996L31.3503 331.953L55.7542 331.636C55.7542 331.636 55.7542 329.966 55.6957 327.011L70.0058 330.927C70.0058 330.927 83.9485 283.822 88.6991 264.494C92.6648 248.389 74.8649 184.703 74.8649 184.703ZM55.4286 303.567C55.0612 268.719 54.6354 209.458 55.1447 202.211C55.1447 202.211 68.7368 254.384 68.862 258.5C68.9455 260.988 61.373 285.066 55.4286 303.567Z" fill="#455A64"/>
<path d="M55.8878 325.917C55.8878 326.051 50.4276 326.159 43.6983 326.159C36.9691 326.159 31.5005 326.051 31.5005 325.917C31.5005 325.784 36.9608 325.675 43.6983 325.675C50.4359 325.675 55.8878 325.784 55.8878 325.917Z" fill="#455A64"/>
<path d="M55.6707 320.49C56.4341 320.671 57.1822 320.911 57.9082 321.208L63.4937 323.154L69.0791 325.107C69.869 325.333 70.6351 325.635 71.3667 326.009C70.5511 325.896 69.7486 325.703 68.9706 325.433C67.5179 325.007 65.5225 324.373 63.335 323.613C61.1476 322.853 59.1606 322.102 57.7914 321.526C57.0399 321.281 56.3262 320.932 55.6707 320.49V320.49Z" fill="#455A64"/>
<path d="M78.0292 258.032C76.5198 258.384 74.9783 258.58 73.4289 258.616C71.8922 258.813 70.3394 258.849 68.7952 258.725C70.3037 258.367 71.8456 258.168 73.3955 258.132C74.9322 257.936 76.4854 257.903 78.0292 258.032V258.032Z" fill="#455A64"/>
<path d="M76.4345 260.771C75.2343 260.669 74.0526 260.411 72.9196 260.002C71.7404 259.745 70.6006 259.332 69.5299 258.775C70.7335 258.866 71.9189 259.122 73.0532 259.535C74.9567 260.086 76.4762 260.637 76.4345 260.771Z" fill="#455A64"/>
<path d="M57.3906 183.468C57.5028 184.421 57.5446 185.381 57.5158 186.34C57.5158 188.118 57.5158 190.573 57.5158 193.286C57.5158 194.63 57.5158 195.916 57.4657 197.102C57.4963 198.17 57.297 199.232 56.8813 200.216C56.5852 200.886 56.1118 201.464 55.5121 201.885C55.3076 202.055 55.0634 202.17 54.8024 202.219C54.8024 202.219 55.0362 202.069 55.4119 201.752C55.9391 201.3 56.3488 200.727 56.6058 200.082C56.9539 199.126 57.11 198.11 57.065 197.093C57.065 195.899 57.065 194.589 57.065 193.269C57.065 190.556 57.1318 188.101 57.1819 186.331C57.1792 185.373 57.249 184.416 57.3906 183.468V183.468Z" fill="#455A64"/>
<path d="M43.4228 182.616C43.4318 182.738 43.4318 182.861 43.4228 182.984C43.4228 183.251 43.4228 183.61 43.4228 184.069C43.4228 185.037 43.3477 186.44 43.2892 188.243C43.1723 191.875 43.0054 197.093 42.7967 203.53C42.4043 216.438 42.0035 234.279 41.9033 253.974C41.8031 273.67 42.0285 291.545 42.2874 304.444C42.4293 310.881 42.5378 316.132 42.6213 319.731C42.6213 321.526 42.6881 322.92 42.7132 323.905C42.7132 324.364 42.7132 324.74 42.7132 324.991C42.7221 325.113 42.7221 325.236 42.7132 325.358C42.7042 325.236 42.7042 325.113 42.7132 324.991C42.7132 324.732 42.7132 324.373 42.6547 323.913C42.6547 322.937 42.5629 321.542 42.4877 319.739C42.3458 316.132 42.1788 310.906 42.0118 304.452C41.6695 291.536 41.4024 273.695 41.5026 253.974C41.6028 234.254 42.0536 216.404 42.5211 203.522C42.7549 197.068 42.972 191.833 43.1557 188.235C43.2475 186.448 43.3226 185.054 43.3727 184.061C43.3727 183.601 43.4228 183.226 43.4395 182.975C43.4254 182.856 43.4198 182.736 43.4228 182.616V182.616Z" fill="#455A64"/>
<path d="M68.7869 186.415C68.8376 186.526 68.8794 186.64 68.9121 186.757C68.9872 187.008 69.0958 187.342 69.2294 187.776C69.4965 188.669 69.9223 189.988 70.3899 191.708C71.35 195.14 72.6441 200.124 74.0885 206.327C75.5328 212.53 77.1358 219.928 78.8056 228.176C80.4754 236.425 82.237 245.509 83.815 255.093C84.0153 256.295 84.199 257.489 84.3576 258.683C84.3576 259.001 84.4161 259.326 84.4161 259.635L84.2658 260.52C84.1573 261.113 84.0738 261.706 83.9402 262.282C83.4643 264.603 82.93 266.874 82.3539 269.094C81.2184 273.536 80.0162 277.786 78.8306 281.827C76.4762 289.908 74.2053 297.138 72.2767 303.208C70.3481 309.278 68.7368 314.162 67.6013 317.535L66.2822 321.417L65.9232 322.427C65.892 322.544 65.8472 322.656 65.7896 322.761C65.8114 322.642 65.8421 322.525 65.8815 322.411C65.9649 322.16 66.0651 321.826 66.1987 321.392L67.4427 317.485L71.9845 303.116C73.8714 297.038 76.1089 289.8 78.4466 281.718C79.6154 277.677 80.8093 273.419 81.9448 268.986C82.5125 266.773 83.0468 264.511 83.5227 262.198C83.6563 261.622 83.7315 261.038 83.8317 260.453L83.9819 259.577C83.9819 259.293 83.9402 259.017 83.9235 258.742C83.7649 257.565 83.5895 256.371 83.3892 255.177C81.8029 245.601 80.0496 236.517 78.3798 228.268C76.71 220.019 75.1989 212.564 73.7962 206.394C72.3936 200.224 71.1329 195.19 70.2229 191.75C69.7887 190.03 69.388 188.703 69.1459 187.801L68.8704 186.774C68.8294 186.658 68.8014 186.537 68.7869 186.415V186.415Z" fill="#455A64"/>
<path d="M55.3535 300.503C55.4207 300.892 55.4459 301.286 55.4286 301.68C55.4286 302.515 55.4286 303.609 55.4703 304.903C55.4703 307.7 55.5705 311.415 55.629 315.514C55.6874 319.614 55.846 323.329 55.9212 326.126C55.9212 327.42 55.988 328.505 56.013 329.349C56.0507 329.74 56.0507 330.134 56.013 330.526C55.9209 330.143 55.8705 329.751 55.8627 329.357C55.796 328.597 55.7208 327.504 55.6373 326.143C55.4703 323.429 55.3117 319.672 55.2199 315.523C55.128 311.373 55.1447 307.616 55.2199 304.903C55.2199 303.542 55.2783 302.398 55.3117 301.68C55.2948 301.287 55.3088 300.894 55.3535 300.503Z" fill="#455A64"/>
<path d="M74.8649 184.703L56.3136 183.276L28.2111 180.996L31.3503 331.953L55.7542 331.636C55.7542 331.636 55.7542 329.966 55.6957 327.011L70.0058 330.927C70.0058 330.927 83.9485 283.822 88.6991 264.494C92.6648 248.389 74.8649 184.703 74.8649 184.703ZM55.4286 303.567C55.0612 268.719 54.6354 209.458 55.1447 202.211C55.1447 202.211 68.7368 254.384 68.862 258.5C68.9455 260.988 61.373 285.066 55.4286 303.567Z" fill="#263238"/>
<path d="M55.8878 325.917C55.8878 326.051 50.4276 326.159 43.6983 326.159C36.9691 326.159 31.5005 326.051 31.5005 325.917C31.5005 325.784 36.9608 325.675 43.6983 325.675C50.4359 325.675 55.8878 325.784 55.8878 325.917Z" fill="#455A64"/>
<path d="M55.6707 320.49C56.4341 320.671 57.1822 320.911 57.9082 321.208L63.4937 323.154L69.0791 325.107C69.869 325.333 70.6351 325.635 71.3667 326.009C70.5511 325.896 69.7486 325.703 68.9706 325.433C67.5179 325.007 65.5225 324.373 63.335 323.613C61.1476 322.853 59.1606 322.102 57.7914 321.526C57.0399 321.281 56.3262 320.932 55.6707 320.49V320.49Z" fill="#455A64"/>
<path d="M78.0292 258.032C76.5198 258.384 74.9783 258.58 73.4289 258.616C71.8922 258.813 70.3394 258.849 68.7952 258.725C70.3037 258.367 71.8456 258.168 73.3955 258.132C74.9322 257.936 76.4854 257.903 78.0292 258.032V258.032Z" fill="#455A64"/>
<path d="M76.4345 260.771C75.2343 260.669 74.0526 260.411 72.9196 260.002C71.7404 259.745 70.6006 259.332 69.5299 258.775C70.7335 258.866 71.9189 259.122 73.0532 259.535C74.9567 260.086 76.4762 260.637 76.4345 260.771Z" fill="#455A64"/>
<path d="M57.3906 183.468C57.5028 184.421 57.5446 185.381 57.5158 186.34C57.5158 188.118 57.5158 190.573 57.5158 193.286C57.5158 194.63 57.5158 195.916 57.4657 197.102C57.4963 198.17 57.297 199.232 56.8813 200.216C56.5852 200.886 56.1118 201.464 55.5121 201.885C55.3076 202.055 55.0634 202.17 54.8024 202.219C54.8024 202.219 55.0362 202.069 55.4119 201.752C55.9391 201.3 56.3488 200.727 56.6058 200.082C56.9539 199.126 57.11 198.11 57.065 197.093C57.065 195.899 57.065 194.589 57.065 193.269C57.065 190.556 57.1318 188.101 57.1819 186.331C57.1792 185.373 57.249 184.416 57.3906 183.468V183.468Z" fill="#455A64"/>
<path d="M43.4228 182.616C43.4318 182.738 43.4318 182.861 43.4228 182.984C43.4228 183.251 43.4228 183.61 43.4228 184.069C43.4228 185.037 43.3477 186.44 43.2892 188.243C43.1723 191.875 43.0054 197.093 42.7967 203.53C42.4043 216.438 42.0035 234.279 41.9033 253.974C41.8031 273.67 42.0285 291.545 42.2874 304.444C42.4293 310.881 42.5378 316.132 42.6213 319.731C42.6213 321.526 42.6881 322.92 42.7132 323.905C42.7132 324.364 42.7132 324.74 42.7132 324.991C42.7221 325.113 42.7221 325.236 42.7132 325.358C42.7042 325.236 42.7042 325.113 42.7132 324.991C42.7132 324.732 42.7132 324.373 42.6547 323.913C42.6547 322.937 42.5629 321.542 42.4877 319.739C42.3458 316.132 42.1788 310.906 42.0118 304.452C41.6695 291.536 41.4024 273.695 41.5026 253.974C41.6028 234.254 42.0536 216.404 42.5211 203.522C42.7549 197.068 42.972 191.833 43.1557 188.235C43.2475 186.448 43.3226 185.054 43.3727 184.061C43.3727 183.601 43.4228 183.226 43.4395 182.975C43.4254 182.856 43.4198 182.736 43.4228 182.616V182.616Z" fill="#455A64"/>
<path d="M68.7869 186.415C68.8376 186.526 68.8794 186.64 68.9121 186.757C68.9872 187.008 69.0958 187.342 69.2294 187.776C69.4965 188.669 69.9223 189.988 70.3899 191.708C71.35 195.14 72.6441 200.124 74.0885 206.327C75.5328 212.53 77.1358 219.928 78.8056 228.176C80.4754 236.425 82.237 245.509 83.815 255.093C84.0153 256.295 84.199 257.489 84.3576 258.683C84.3576 259.001 84.4161 259.326 84.4161 259.635L84.2658 260.52C84.1573 261.113 84.0738 261.706 83.9402 262.282C83.4643 264.603 82.93 266.874 82.3539 269.094C81.2184 273.536 80.0162 277.786 78.8306 281.827C76.4762 289.908 74.2053 297.138 72.2767 303.208C70.3481 309.278 68.7368 314.162 67.6013 317.535L66.2822 321.417L65.9232 322.427C65.892 322.544 65.8472 322.656 65.7896 322.761C65.8114 322.642 65.8421 322.525 65.8815 322.411C65.9649 322.16 66.0651 321.826 66.1987 321.392L67.4427 317.485L71.9845 303.116C73.8714 297.038 76.1089 289.8 78.4466 281.718C79.6154 277.677 80.8093 273.419 81.9448 268.986C82.5125 266.773 83.0468 264.511 83.5227 262.198C83.6563 261.622 83.7315 261.038 83.8317 260.453L83.9819 259.577C83.9819 259.293 83.9402 259.017 83.9235 258.742C83.7649 257.565 83.5895 256.371 83.3892 255.177C81.8029 245.601 80.0496 236.517 78.3798 228.268C76.71 220.019 75.1989 212.564 73.7962 206.394C72.3936 200.224 71.1329 195.19 70.2229 191.75C69.7887 190.03 69.388 188.703 69.1459 187.801L68.8704 186.774C68.8294 186.658 68.8014 186.537 68.7869 186.415V186.415Z" fill="#455A64"/>
<path d="M55.3535 300.503C55.4207 300.892 55.4459 301.286 55.4286 301.68C55.4286 302.515 55.4286 303.609 55.4703 304.903C55.4703 307.7 55.5705 311.415 55.629 315.514C55.6874 319.614 55.846 323.329 55.9212 326.126C55.9212 327.42 55.988 328.505 56.013 329.349C56.0507 329.74 56.0507 330.134 56.013 330.526C55.9209 330.143 55.8705 329.751 55.8627 329.357C55.796 328.597 55.7208 327.504 55.6373 326.143C55.4703 323.429 55.3117 319.672 55.2199 315.523C55.128 311.373 55.1447 307.616 55.2199 304.903C55.2199 303.542 55.2783 302.398 55.3117 301.68C55.2948 301.287 55.3088 300.894 55.3535 300.503Z" fill="#455A64"/>
<path d="M42.9052 112.251L57.0984 113.303C57.2904 111.634 57.5659 105.28 57.5659 105.28C57.5659 105.28 63.4853 104.737 63.9195 98.8764C64.3536 93.0154 64.1699 79.4818 64.1699 79.4818C60.925 77.8418 57.3008 77.0985 53.6723 77.329C50.0438 77.5594 46.5427 78.7552 43.5314 80.7926L42.6213 81.4104L42.9052 112.251Z" fill="#E5BAAB"/>
<path d="M62.1495 89.4755C62.037 89.3571 61.9617 89.2083 61.9329 89.0476C61.9042 88.8868 61.9231 88.7212 61.9876 88.5711C62.052 88.421 62.159 88.2932 62.2954 88.2033C62.4317 88.1135 62.5914 88.0656 62.7547 88.0656C62.9181 88.0656 63.0778 88.1135 63.2141 88.2033C63.3505 88.2932 63.4575 88.421 63.5219 88.5711C63.5864 88.7212 63.6054 88.8868 63.5766 89.0476C63.5478 89.2083 63.4725 89.3571 63.3601 89.4755C63.2821 89.5576 63.1882 89.623 63.0841 89.6676C62.9801 89.7123 62.868 89.7354 62.7547 89.7354C62.6415 89.7354 62.5295 89.7123 62.4254 89.6676C62.3213 89.623 62.2275 89.5576 62.1495 89.4755V89.4755Z" fill="#263238"/>
<path d="M63.6523 88.2232C63.5521 88.3233 63.0094 87.8474 62.1996 87.789C61.3897 87.7306 60.7803 88.1146 60.6968 88.0061C60.6133 87.8975 60.7552 87.7807 61.0307 87.6053C61.386 87.372 61.8098 87.2661 62.233 87.3048C62.6594 87.3302 63.065 87.4978 63.3851 87.7806C63.6273 87.9894 63.7024 88.1647 63.6523 88.2232Z" fill="#263238"/>
<path d="M54.3015 88.3567C54.4337 88.4533 54.5346 88.5866 54.5916 88.7401C54.6486 88.8936 54.6593 89.0604 54.6222 89.2199C54.5852 89.3794 54.5021 89.5244 54.3832 89.637C54.2643 89.7496 54.115 89.8248 53.9538 89.8532C53.7925 89.8816 53.6265 89.8619 53.4763 89.7967C53.3262 89.7314 53.1985 89.6235 53.1092 89.4863C53.0199 89.349 52.973 89.1886 52.9741 89.0249C52.9753 88.8611 53.0246 88.7014 53.1159 88.5655C53.1786 88.4721 53.2595 88.3924 53.3537 88.3311C53.4479 88.2698 53.5535 88.2282 53.6643 88.2087C53.775 88.1892 53.8885 88.1923 53.998 88.2177C54.1075 88.2431 54.2107 88.2904 54.3015 88.3567V88.3567Z" fill="#263238"/>
<path d="M54.8358 88.3985C54.7356 88.4903 54.193 88.0144 53.3831 87.956C52.5733 87.8975 51.9638 88.29 51.8803 88.1814C51.7968 88.0729 51.9388 87.9476 52.2059 87.7723C52.5679 87.5475 52.9914 87.4423 53.4165 87.4718C53.8417 87.5027 54.2456 87.6695 54.5687 87.9476C54.8108 88.1647 54.8859 88.3567 54.8358 88.3985Z" fill="#263238"/>
<path d="M57.6661 95.2613C58.0932 95.1292 58.5382 95.0645 58.9853 95.0693C59.2023 95.0693 59.3777 95.0275 59.4027 94.9106C59.4238 94.6951 59.3833 94.4779 59.2858 94.2845L58.7515 92.6147C58.2374 91.187 57.86 89.7138 57.6244 88.2148C58.2713 89.5856 58.7884 91.0139 59.1689 92.4811L59.6699 94.1509C59.7904 94.4272 59.814 94.7362 59.7367 95.0275C59.7016 95.1057 59.6485 95.1744 59.5817 95.2281C59.515 95.2818 59.4365 95.3189 59.3526 95.3364C59.2334 95.3519 59.1128 95.3519 58.9936 95.3364C58.5499 95.3825 58.1018 95.3571 57.6661 95.2613V95.2613Z" fill="#263238"/>
<path d="M54.9861 95.9877C54.1512 95.4366 57.2236 97.3652 58.8767 97.3903C58.5765 97.7971 58.1468 98.0898 57.6583 98.2203C57.1698 98.3507 56.6515 98.3112 56.1883 98.1083C54.4685 97.3485 54.9861 95.9877 54.9861 95.9877Z" fill="white"/>
<path d="M57.5325 105.197C54.8216 105.082 52.206 104.164 50.0185 102.558C50.0185 102.558 51.563 106.891 57.449 106.733L57.5325 105.197Z" fill="#D78776"/>
<path d="M43.7401 86.6118C43.6065 86.5617 39.382 86.0107 39.7827 91.0033C40.1835 95.996 45.0926 93.9338 45.0843 93.7919C45.0759 93.65 43.7401 86.6118 43.7401 86.6118Z" fill="#E5BAAB"/>
<path d="M43.3727 92.1638C43.3727 92.1638 43.2976 92.2306 43.1556 92.3141C42.9546 92.4172 42.7222 92.441 42.5044 92.3809C42.1664 92.2006 41.8819 91.9342 41.6796 91.6088C41.4773 91.2834 41.3644 90.9104 41.3523 90.5275C41.3062 90.1013 41.3576 89.6702 41.5025 89.2668C41.5359 89.1071 41.6072 88.9577 41.7104 88.8313C41.8135 88.7049 41.9456 88.6052 42.0953 88.5404C42.1939 88.5086 42.3004 88.5111 42.3974 88.5475C42.4944 88.5839 42.5762 88.652 42.6296 88.7408C42.7048 88.8744 42.6881 88.9746 42.7131 88.9829C42.7382 88.9913 42.8133 88.8911 42.7131 88.6907C42.6783 88.5681 42.6015 88.4617 42.4961 88.3901C42.348 88.302 42.1723 88.2723 42.0035 88.3066C41.8046 88.363 41.6235 88.4693 41.4773 88.6154C41.3312 88.7616 41.2249 88.9427 41.1686 89.1415C40.9885 89.5886 40.9225 90.0735 40.9766 90.5525C40.9858 90.9985 41.1272 91.4318 41.3829 91.7974C41.6385 92.163 41.9968 92.4445 42.4126 92.6064C42.5494 92.6351 42.691 92.6327 42.8268 92.5995C42.9626 92.5662 43.0892 92.503 43.1974 92.4143C43.3727 92.2891 43.3977 92.1722 43.3727 92.1638Z" fill="#D78776"/>
<path d="M64.5456 77.3695C64.8835 77.3605 65.2148 77.2739 65.5139 77.1163C65.813 76.9588 66.0718 76.7346 66.2704 76.461C66.469 76.1875 66.602 75.8719 66.6591 75.5387C66.7162 75.2055 66.696 74.8637 66.5999 74.5396C66.5038 74.2155 66.3344 73.9179 66.1049 73.6697C65.8754 73.4215 65.5919 73.2295 65.2763 73.1084C64.9607 72.9873 64.6215 72.9404 64.2848 72.9714C63.9482 73.0023 63.6232 73.1103 63.335 73.2869C64.0332 72.7073 64.6021 71.9878 65.0048 71.1746C65.1996 70.7645 65.264 70.3046 65.1894 69.8567C65.1147 69.4089 64.9046 68.9947 64.5874 68.67C64.22 68.4268 63.795 68.2849 63.3552 68.2586C62.9154 68.2322 62.4765 68.3222 62.0827 68.5197C60.8387 69.054 59.8535 70.106 58.5761 70.5485C57.2988 70.991 55.8711 70.7739 54.5019 70.8323C52.9655 70.8597 51.4774 71.3743 50.2523 72.3017C49.2083 73.122 48.5326 74.3232 48.3737 75.6413C48.2096 75.416 48.0282 75.2039 47.8311 75.0068C47.1817 74.2318 46.3057 73.68 45.3264 73.4289C45.2679 73.5374 46.4117 74.1719 47.5054 75.3074C47.8032 75.5923 48.0821 75.8962 48.3403 76.2174C46.4368 75.9836 44.3412 75.9669 42.8384 77.1525C42.2296 77.6952 41.7484 78.3659 41.4294 79.1165C41.1104 79.8671 40.9615 80.679 40.9933 81.4939C40.9933 83.1136 41.6612 84.6582 42.1371 86.2111C42.2522 86.651 42.4506 87.0648 42.7215 87.43L43.4395 91.6045L46.0527 91.5544L45.8858 82.7964C45.8858 82.7964 45.6186 79.1061 48.7912 79.4568C51.9638 79.8074 56.3052 83.3557 62.4667 82.454C63.4777 82.3977 64.4627 82.1122 65.3471 81.6192C65.7752 81.348 66.1232 80.9675 66.3551 80.5169C66.5869 80.0663 66.6944 79.562 66.6663 79.056C66.6055 78.5526 66.3489 78.0933 65.952 77.7777C65.5551 77.462 65.0498 77.3154 64.5456 77.3695V77.3695Z" fill="#263238"/>
<path d="M117.645 120.592L118.029 117.937C118.421 116.485 118.668 114.997 118.764 113.495C118.826 112.749 118.759 111.998 118.563 111.275C118.366 110.365 118.04 109.487 117.595 108.67C117.11 107.96 117.745 107 118.43 107.292C119.114 107.584 120.542 109.471 121.001 112.193C121.46 114.915 123.606 111.141 124.407 109.78C125.209 108.419 127.906 104.32 128.523 104.236C129.425 104.111 129.726 105.071 128.882 106.399C128.039 107.726 125.818 111.942 126.561 112.327C127.118 112.238 127.687 112.266 128.231 112.41C128.319 112.436 128.397 112.488 128.454 112.56C128.51 112.632 128.544 112.719 128.549 112.811C128.545 113.232 128.59 113.652 128.682 114.063C128.682 114.063 129.776 113.813 130.001 114.289C130.154 114.777 130.224 115.288 130.21 115.8C130.21 115.8 131.045 115.516 131.446 115.8C132.28 116.476 131.212 117.636 131.212 117.636C128.753 120.569 126.113 123.343 123.305 125.944L117.553 120.4" fill="#E5BAAB"/>
<path d="M128.348 114.247C128.103 114.763 127.772 115.234 127.371 115.641C127.037 116.042 126.62 116.476 126.127 117.002C125.87 117.275 125.591 117.527 125.292 117.753C125.108 117.9 124.886 117.99 124.652 118.014C124.419 118.037 124.183 117.993 123.973 117.887C123.859 117.82 123.762 117.727 123.691 117.615C123.62 117.503 123.576 117.376 123.564 117.244C123.547 117.009 123.6 116.774 123.714 116.568C123.92 116.258 124.143 115.959 124.382 115.674C124.808 115.14 125.159 114.639 125.451 114.205C125.731 113.714 126.053 113.248 126.411 112.811C126.272 113.366 126.035 113.892 125.71 114.364C125.407 114.9 125.072 115.419 124.708 115.917C124.486 116.183 124.28 116.462 124.09 116.751C123.94 117.027 123.948 117.369 124.19 117.495C124.327 117.552 124.476 117.572 124.622 117.553C124.769 117.534 124.908 117.476 125.025 117.386C125.302 117.176 125.565 116.947 125.81 116.701C126.311 116.234 126.745 115.791 127.104 115.416C127.478 114.985 127.895 114.593 128.348 114.247Z" fill="#D78776"/>
<path d="M129.809 115.958C129.564 116.404 129.248 116.807 128.874 117.152C128.497 117.556 128.087 117.928 127.647 118.263C127.383 118.462 127.104 118.641 126.812 118.797C126.639 118.884 126.453 118.943 126.261 118.972C126.145 118.991 126.026 118.985 125.912 118.955C125.799 118.925 125.693 118.871 125.601 118.797C125.447 118.638 125.35 118.432 125.324 118.211C125.298 117.991 125.346 117.769 125.459 117.578C125.628 117.28 125.827 117.001 126.052 116.743C126.42 116.317 126.762 115.908 127.104 115.499C127.714 114.798 128.114 114.389 128.164 114.422C127.944 114.881 127.663 115.307 127.33 115.691L126.395 117.019C126.197 117.255 126.019 117.506 125.86 117.77C125.796 117.877 125.766 118 125.775 118.124C125.784 118.249 125.831 118.367 125.91 118.463C126.061 118.605 126.378 118.546 126.653 118.413C126.927 118.271 127.192 118.112 127.446 117.937C127.88 117.627 128.296 117.293 128.69 116.935C129.022 116.565 129.398 116.237 129.809 115.958V115.958Z" fill="#D78776"/>
<path d="M130.152 118.346C130.193 118.346 130.152 118.722 129.759 119.181C129.64 119.323 129.494 119.44 129.329 119.525C129.164 119.609 128.984 119.66 128.799 119.674C128.56 119.676 128.327 119.596 128.139 119.448C128.036 119.361 127.953 119.253 127.897 119.13C127.84 119.007 127.812 118.874 127.814 118.738C127.88 118.313 128.052 117.911 128.315 117.57C128.491 117.294 128.683 117.029 128.891 116.777C129.25 116.342 129.509 116.117 129.559 116.159C129.609 116.2 129.425 116.484 129.141 116.994C128.974 117.286 128.807 117.553 128.657 117.828C128.456 118.123 128.317 118.455 128.248 118.805C128.254 118.947 128.315 119.081 128.418 119.179C128.521 119.277 128.657 119.331 128.799 119.331C129.076 119.322 129.34 119.213 129.542 119.022C129.918 118.622 130.093 118.313 130.152 118.346Z" fill="#D78776"/>
<path d="M117.019 117.144C117.019 117.144 95.1194 138.692 92.047 138.851C88.5404 139.018 77.7536 123.723 77.7536 123.723C70.849 113.07 61.7404 111.35 58.4175 111.083V109.763L42.0953 108.428C42.0953 108.428 42.0953 109.83 42.0953 111.057H34.8902C34.8902 111.057 21.9493 110.465 20.0124 127.847L29.3131 135.203L33.1286 149.396C34.456 154.338 29.7138 162.211 27.4513 174.96C27.1023 177.085 27.4571 179.267 28.4615 181.172L75.5912 186.59L73.0865 150.556L72.3268 142.207C76.2091 147.509 83.1804 155.006 91.7214 154.839C106.29 154.564 126.528 123.948 126.528 123.948L117.019 117.144Z" fill="#E0E0E0"/>
<path d="M52.9239 109.53C53.0049 110.27 53.0049 111.018 52.9239 111.759C52.8022 113.614 52.5511 115.458 52.1725 117.277L52.1141 117.553L51.8636 117.419C51.2959 117.119 50.7031 116.802 50.102 116.451C47.7643 115.073 45.7689 113.654 44.2577 112.669C43.4419 112.172 42.6558 111.629 41.9033 111.041C42.1532 111.114 42.3919 111.221 42.613 111.358C43.0471 111.6 43.6733 111.951 44.4247 112.41C45.9442 113.328 47.9646 114.714 50.269 116.075C50.8534 116.417 51.4378 116.743 52.0055 117.044L51.6966 117.186C52.1809 115.032 52.4146 113.103 52.59 111.734C52.6565 110.993 52.7681 110.257 52.9239 109.53V109.53Z" fill="#FAFAFA"/>
<path d="M58.4676 111.174C58.3627 111.892 58.2065 112.6 58.0001 113.295C57.8415 113.955 57.6745 114.739 57.3906 115.591C57.2428 116.041 57.0672 116.482 56.8646 116.91C56.8062 117.064 56.7011 117.195 56.5641 117.286C56.469 117.344 56.3569 117.368 56.2462 117.355C56.1355 117.341 56.0327 117.29 55.9546 117.211C55.7982 116.98 55.6719 116.73 55.5789 116.468C54.744 114.572 54.0844 112.853 53.6002 111.592C53.2956 110.931 53.0633 110.24 52.9072 109.53C53.2972 110.144 53.6245 110.795 53.8841 111.475C54.4434 112.702 55.1865 114.405 55.9796 116.301C56.0567 116.512 56.1516 116.715 56.2635 116.91C56.3052 116.91 56.2635 116.91 56.3386 116.91C56.4015 116.859 56.4503 116.793 56.4806 116.718C56.6803 116.307 56.8587 115.887 57.0149 115.457C57.3071 114.622 57.5075 113.854 57.6995 113.212C57.8655 112.502 58.1238 111.817 58.4676 111.174V111.174Z" fill="#FAFAFA"/>
<path d="M55.4286 169.483C55.3887 169.288 55.3663 169.09 55.3618 168.891C55.3618 168.456 55.3284 167.9 55.2616 167.221C55.1948 165.685 55.0946 163.556 54.9777 160.942C54.7774 155.599 54.4935 148.294 54.1929 140.229C53.8924 132.164 53.7003 124.858 53.5334 119.515C53.4749 116.893 53.4248 114.764 53.3831 113.228C53.3831 112.527 53.3831 111.959 53.3831 111.558C53.3615 111.359 53.3615 111.157 53.3831 110.957C53.4216 111.153 53.4411 111.351 53.4415 111.55C53.4415 111.984 53.5083 112.552 53.5501 113.22C53.6168 114.748 53.717 116.877 53.8339 119.49C54.0343 124.833 54.3098 132.139 54.6187 140.204C54.9276 148.269 55.103 155.574 55.2783 160.926C55.3367 163.539 55.3868 165.668 55.4286 167.204C55.4286 167.914 55.4286 168.481 55.4286 168.916C55.4482 169.104 55.4482 169.295 55.4286 169.483Z" fill="#F5F5F5"/>
<path d="M52.4564 114.806L53.8256 118.58L55.0028 114.531L53.1744 110.473L52.4564 114.806Z" fill="#FF725E"/>
<path d="M54.0761 117.453L53.1744 159.932L59.5864 173.341L62.1161 158.254L54.0761 117.453Z" fill="#FF725E"/>
<path d="M92.2808 144.103C92.2808 144.103 92.2808 144.228 92.2808 144.436L92.2307 144.754L92.0888 144.436C91.7657 143.592 91.5796 142.701 91.5377 141.798C91.3996 140.791 91.5203 139.765 91.8884 138.818C92.0136 138.818 91.8884 140.154 91.9719 141.773C92.0387 142.925 92.2223 143.911 92.2808 144.386H92.0888C92.1639 144.161 92.2474 144.103 92.2808 144.103Z" fill="#FAFAFA"/>
<path d="M94.1593 143.961C93.5365 143.307 93.0736 142.519 92.8068 141.656C92.405 140.86 92.1854 139.985 92.1639 139.093C92.5889 139.87 92.9357 140.686 93.1992 141.531C93.5973 142.308 93.9189 143.122 94.1593 143.961V143.961Z" fill="#FAFAFA"/>
<path d="M125.159 125.977C123.353 125.022 121.618 123.939 119.966 122.738C118.235 121.657 116.583 120.455 115.023 119.139C116.828 120.102 118.563 121.19 120.216 122.395C121.947 123.47 123.598 124.667 125.159 125.977Z" fill="#FAFAFA"/>
<path d="M34.1305 132.798C34.1305 132.798 30.6573 157.01 32.302 158.363C41.3857 166.002 54.0093 170.009 58.5177 171.27C59.1772 171.111 59.9454 170.903 60.8303 170.619C61.5975 170.375 62.3175 170.002 62.9593 169.517C63.7789 168.942 64.515 168.256 65.1467 167.48C65.2421 167.313 65.3869 167.18 65.5611 167.099C65.7353 167.018 65.9303 166.994 66.1191 167.029C66.3079 167.063 66.4813 167.156 66.6152 167.294C66.7491 167.431 66.837 167.607 66.8666 167.797C66.9084 168.632 65.5725 170.777 63.0595 172.347C63.0595 172.347 68.8453 181.656 70.6904 182.499C72.5355 183.343 77.8121 185.714 76.9187 186.164C76.0254 186.615 69.6051 184.753 69.6051 184.753L56.5807 181.272C56.5807 181.272 13.5002 174.518 16.3639 154.756C18.1256 142.641 20.0458 131.729 20.7388 128.966L34.1305 132.798Z" fill="#E5BAAB"/>
<path d="M20.0124 127.839L16.1886 154.23C15.2953 162.353 20.7388 168.807 28.0608 172.439C39.2066 177.957 55.7542 181.898 55.6123 181.873C55.4703 181.848 56.731 170.093 56.731 170.093C56.731 170.093 33.5293 160.074 32.803 155.733C32.0766 151.391 35.7502 133.357 35.7502 133.357L20.0124 127.839Z" fill="#E0E0E0"/>
<path d="M55.5788 181.873C55.5701 181.804 55.5701 181.734 55.5788 181.664C55.5788 181.497 55.5788 181.297 55.6206 181.055C55.6623 180.479 55.7208 179.702 55.8043 178.709C55.9796 176.638 56.2384 173.7 56.5473 170.084L56.6392 170.235L44.9506 164.582L41.6111 162.913C40.484 162.312 39.3485 161.652 38.2214 160.926C37.0778 160.188 35.9794 159.382 34.9319 158.513C34.4059 158.07 33.88 157.603 33.379 157.11C33.0966 156.862 32.8691 156.558 32.7111 156.217C32.6226 156.051 32.5579 155.874 32.5191 155.691C32.4643 155.517 32.4252 155.338 32.4022 155.157C32.0265 152.268 32.7946 149.546 33.2371 146.95C33.6796 144.353 34.1221 141.823 34.5395 139.435C35.3744 134.643 36.1342 130.335 36.7687 126.695C37.1113 125.082 37.3069 123.442 37.3531 121.794C37.3692 120.554 37.1127 119.326 36.6017 118.196C36.2739 117.483 35.8086 116.842 35.2325 116.309C34.8317 115.95 34.5896 115.808 34.598 115.783C34.8464 115.908 35.079 116.062 35.2909 116.242C35.9039 116.759 36.4017 117.399 36.752 118.121C37.3 119.268 37.5852 120.523 37.5869 121.794C37.5683 123.457 37.3922 125.115 37.0609 126.745C36.4514 130.394 35.7251 134.71 34.9236 139.511C34.5145 141.907 34.0887 144.428 33.6462 147.025C33.5377 147.676 33.4208 148.335 33.3039 149.003C33.187 149.671 33.0618 150.323 32.9699 150.99C32.7504 152.34 32.7139 153.713 32.8614 155.073C32.8878 155.239 32.9241 155.404 32.9699 155.566C33.0028 155.726 33.059 155.881 33.1369 156.025C33.2744 156.32 33.4737 156.582 33.7213 156.793C34.2139 157.277 34.7232 157.736 35.2408 158.171C36.2744 159.031 37.3589 159.828 38.4886 160.558C39.599 161.285 40.7177 161.936 41.8281 162.537L45.1677 164.207L56.7644 169.984L56.8562 170.034V170.135C56.4805 173.75 56.18 176.68 55.9712 178.751C55.8543 179.736 55.7709 180.521 55.7041 181.088C55.6707 181.333 55.6456 181.534 55.6289 181.689C55.6182 181.752 55.6014 181.814 55.5788 181.873V181.873Z" fill="#FAFAFA"/>
<path d="M53.4249 168.481C53.4496 169.086 53.402 169.691 53.2829 170.285C53.141 171.387 52.9072 172.906 52.5983 174.576C52.2894 176.246 51.9387 177.749 51.6549 178.826C51.5403 179.419 51.3466 179.995 51.0788 180.537C51.1079 179.934 51.2003 179.335 51.3543 178.751C51.5992 177.493 51.8775 176.073 52.1892 174.493C52.4814 172.466 52.894 170.459 53.4249 168.481V168.481Z" fill="#FAFAFA"/>
<path d="M55.5789 181.873C55.4398 181.872 55.3018 181.85 55.1698 181.806L54.026 181.531L49.8515 180.429C46.3199 179.477 41.4107 178.225 36.1509 176.296C33.6757 175.391 31.2656 174.317 28.9374 173.082C27.0355 172.07 25.2204 170.903 23.5106 169.592C22.357 168.709 21.2688 167.743 20.2546 166.703C19.8955 166.336 19.6367 166.044 19.4197 165.868C19.3203 165.77 19.2359 165.657 19.1692 165.534C19.1692 165.534 19.5866 165.927 20.338 166.62C21.3966 167.605 22.5116 168.528 23.6776 169.383C25.4041 170.625 27.2177 171.741 29.1044 172.723C31.4267 173.929 33.8252 174.984 36.2845 175.879C41.5109 177.799 46.4117 179.093 49.9183 180.128L54.0928 181.355L55.2199 181.714C55.3459 181.752 55.4665 181.805 55.5789 181.873V181.873Z" fill="#FAFAFA"/>
<path d="M55.8627 171.303C55.8677 171.453 55.8281 171.6 55.749 171.727C55.6699 171.853 55.5548 171.953 55.4185 172.014C55.2822 172.075 55.1309 172.094 54.9838 172.069C54.8366 172.043 54.7004 171.975 54.5925 171.871C54.4846 171.768 54.4098 171.635 54.3778 171.489C54.3458 171.344 54.358 171.192 54.4127 171.053C54.4675 170.914 54.5624 170.794 54.6854 170.71C54.8083 170.625 54.9537 170.579 55.103 170.577C55.2994 170.575 55.489 170.649 55.631 170.785C55.773 170.921 55.8562 171.107 55.8627 171.303Z" fill="#FAFAFA"/>
</svg>
